<mxfile host="app.diagrams.net" modified="2024-06-13T08:28:14.680Z" agent="Mozilla/5.0 (Macintosh; Intel Mac OS X 10_15_7) AppleWebKit/605.1.15 (KHTML, like Gecko) Version/17.4.1 Safari/605.1.15" version="24.5.2" etag="2PwmtUjUWQ15vvHInuQz" type="github">
  <diagram name="Page-1" id="5Qsyt-Jm_kw8wom_rRO_">
    <mxGraphModel>
      <root>
        <mxCell id="0" />
        <mxCell id="1" parent="0" />
      </root>
    </mxGraphModel>
  </diagram>
</mxfile>
